<mxfile host="app.diagrams.net" modified="2024-05-01T16:06:56.794Z" agent="Mozilla/5.0 (Macintosh; Intel Mac OS X 10_15_7) AppleWebKit/537.36 (KHTML, like Gecko) Chrome/124.0.0.0 Safari/537.36" version="24.0.7" etag="abWH1q4nBkNYfjQ3JTRY" type="github">
  <diagram name="Page-1" id="nWr-kgQfAC-sndB74_gN">
    <mxGraphModel>
      <root>
        <mxCell id="0" />
        <mxCell id="1" parent="0" />
      </root>
    </mxGraphModel>
  </diagram>
</mxfile>
